<mxfile host="app.diagrams.net" modified="2024-04-26T00:48:56.160Z" agent="Mozilla/5.0 (Windows NT 10.0; Win64; x64) AppleWebKit/537.36 (KHTML, like Gecko) Chrome/124.0.0.0 Safari/537.36" etag="nu7R3ff-kmDqf5Z15RnO" version="24.3.0" type="google">
  <diagram name="PÃ¡gina-1" id="cVTPjqIftb26xUQo-dpX">
    <mxGraphModel grid="1" page="1" gridSize="10" guides="1" tooltips="1" connect="1" arrows="1" fold="1" pageScale="1" pageWidth="827" pageHeight="1169" math="0" shadow="0">
      <root>
        <mxCell id="0" />
        <mxCell id="1" parent="0" />
        <mxCell id="G7dS1ypWpmba1u2Bi6X7-1" value="&lt;p style=&quot;margin: 4px 0px 0px; text-align: center;&quot;&gt;&lt;b&gt;Corrupting Potion&lt;/b&gt;&lt;/p&gt;&lt;hr size=&quot;1&quot; style=&quot;border-style:solid;&quot;&gt;&lt;p style=&quot;margin:0px;margin-left:4px;&quot;&gt;-name : String&lt;/p&gt;&lt;p style=&quot;margin:0px;margin-left:4px;&quot;&gt;-value : int&lt;/p&gt;&lt;p style=&quot;margin:0px;margin-left:4px;&quot;&gt;-quantity : int&lt;/p&gt;&lt;p style=&quot;margin:0px;margin-left:4px;&quot;&gt;-time : int&lt;/p&gt;&lt;p style=&quot;margin:0px;margin-left:4px;&quot;&gt;-duration : int&lt;/p&gt;&lt;hr size=&quot;1&quot; style=&quot;border-style:solid;&quot;&gt;&lt;p style=&quot;margin:0px;margin-left:4px;&quot;&gt;+consume&lt;/p&gt;&lt;p style=&quot;margin:0px;margin-left:4px;&quot;&gt;+lifeRegeneration()&lt;span style=&quot;white-space: pre;&quot;&gt;&#x9;&lt;/span&gt;&lt;/p&gt;&lt;p style=&quot;margin:0px;margin-left:4px;&quot;&gt;+manaRegeneration()&lt;/p&gt;&lt;p style=&quot;margin:0px;margin-left:4px;&quot;&gt;+passive()&lt;/p&gt;&lt;p style=&quot;margin:0px;margin-left:4px;&quot;&gt;&lt;br&gt;&lt;/p&gt;" style="verticalAlign=top;align=left;overflow=fill;html=1;whiteSpace=wrap;" vertex="1" parent="1">
          <mxGeometry x="60" y="40" width="140" height="220" as="geometry" />
        </mxCell>
        <mxCell id="G7dS1ypWpmba1u2Bi6X7-3" style="edgeStyle=orthogonalEdgeStyle;rounded=0;orthogonalLoop=1;jettySize=auto;html=1;" edge="1" parent="1" source="G7dS1ypWpmba1u2Bi6X7-2">
          <mxGeometry relative="1" as="geometry">
            <mxPoint x="367.48" y="110" as="targetPoint" />
          </mxGeometry>
        </mxCell>
        <mxCell id="G7dS1ypWpmba1u2Bi6X7-2" value="consume" style="ellipse;whiteSpace=wrap;html=1;" vertex="1" parent="1">
          <mxGeometry x="337.48" y="20" width="60" height="40" as="geometry" />
        </mxCell>
        <mxCell id="G7dS1ypWpmba1u2Bi6X7-5" style="edgeStyle=orthogonalEdgeStyle;rounded=0;orthogonalLoop=1;jettySize=auto;html=1;entryX=0.5;entryY=0;entryDx=0;entryDy=0;" edge="1" parent="1" source="G7dS1ypWpmba1u2Bi6X7-4" target="G7dS1ypWpmba1u2Bi6X7-12">
          <mxGeometry relative="1" as="geometry">
            <mxPoint x="367.48" y="160" as="targetPoint" />
          </mxGeometry>
        </mxCell>
        <mxCell id="G7dS1ypWpmba1u2Bi6X7-4" value="getLife" style="shape=parallelogram;perimeter=parallelogramPerimeter;whiteSpace=wrap;html=1;fixedSize=1;" vertex="1" parent="1">
          <mxGeometry x="329.98" y="80" width="80" height="30" as="geometry" />
        </mxCell>
        <mxCell id="G7dS1ypWpmba1u2Bi6X7-8" style="edgeStyle=orthogonalEdgeStyle;rounded=0;orthogonalLoop=1;jettySize=auto;html=1;entryX=0.5;entryY=0;entryDx=0;entryDy=0;" edge="1" parent="1" source="G7dS1ypWpmba1u2Bi6X7-6" target="G7dS1ypWpmba1u2Bi6X7-7">
          <mxGeometry relative="1" as="geometry" />
        </mxCell>
        <mxCell id="G7dS1ypWpmba1u2Bi6X7-6" value="life+amountToAddPerSecond" style="rounded=0;whiteSpace=wrap;html=1;align=left;" vertex="1" parent="1">
          <mxGeometry x="288.73" y="210" width="162.5" height="40" as="geometry" />
        </mxCell>
        <mxCell id="G7dS1ypWpmba1u2Bi6X7-22" style="edgeStyle=orthogonalEdgeStyle;rounded=0;orthogonalLoop=1;jettySize=auto;html=1;entryX=0;entryY=0.5;entryDx=0;entryDy=0;exitX=0;exitY=0.5;exitDx=0;exitDy=0;" edge="1" parent="1" source="G7dS1ypWpmba1u2Bi6X7-7" target="G7dS1ypWpmba1u2Bi6X7-12">
          <mxGeometry relative="1" as="geometry" />
        </mxCell>
        <mxCell id="G7dS1ypWpmba1u2Bi6X7-7" value="result=life+amountToAddPerSecond" style="shape=document;whiteSpace=wrap;html=1;boundedLbl=1;align=left;" vertex="1" parent="1">
          <mxGeometry x="257.48" y="270" width="220" height="30" as="geometry" />
        </mxCell>
        <mxCell id="G7dS1ypWpmba1u2Bi6X7-11" value="end" style="ellipse;whiteSpace=wrap;html=1;" vertex="1" parent="1">
          <mxGeometry x="327.48" y="330" width="85" height="40" as="geometry" />
        </mxCell>
        <mxCell id="G7dS1ypWpmba1u2Bi6X7-15" style="edgeStyle=orthogonalEdgeStyle;rounded=0;orthogonalLoop=1;jettySize=auto;html=1;entryX=1;entryY=0.5;entryDx=0;entryDy=0;exitX=1;exitY=0.5;exitDx=0;exitDy=0;" edge="1" parent="1" source="G7dS1ypWpmba1u2Bi6X7-12" target="G7dS1ypWpmba1u2Bi6X7-11">
          <mxGeometry relative="1" as="geometry">
            <Array as="points">
              <mxPoint x="487.48" y="155" />
              <mxPoint x="487.48" y="350" />
            </Array>
          </mxGeometry>
        </mxCell>
        <mxCell id="G7dS1ypWpmba1u2Bi6X7-16" value="true" style="edgeLabel;html=1;align=center;verticalAlign=middle;resizable=0;points=[];" connectable="0" vertex="1" parent="G7dS1ypWpmba1u2Bi6X7-15">
          <mxGeometry x="0.0475" relative="1" as="geometry">
            <mxPoint as="offset" />
          </mxGeometry>
        </mxCell>
        <mxCell id="G7dS1ypWpmba1u2Bi6X7-17" style="edgeStyle=orthogonalEdgeStyle;rounded=0;orthogonalLoop=1;jettySize=auto;html=1;exitX=0.5;exitY=1;exitDx=0;exitDy=0;" edge="1" parent="1" source="G7dS1ypWpmba1u2Bi6X7-12" target="G7dS1ypWpmba1u2Bi6X7-6">
          <mxGeometry relative="1" as="geometry" />
        </mxCell>
        <mxCell id="G7dS1ypWpmba1u2Bi6X7-18" value="false" style="edgeLabel;html=1;align=center;verticalAlign=middle;resizable=0;points=[];" connectable="0" vertex="1" parent="G7dS1ypWpmba1u2Bi6X7-17">
          <mxGeometry x="0.0407" y="-1" relative="1" as="geometry">
            <mxPoint as="offset" />
          </mxGeometry>
        </mxCell>
        <mxCell id="G7dS1ypWpmba1u2Bi6X7-12" value="duration=0" style="rhombus;whiteSpace=wrap;html=1;" vertex="1" parent="1">
          <mxGeometry x="329.98" y="130" width="80" height="50" as="geometry" />
        </mxCell>
        <mxCell id="G7dS1ypWpmba1u2Bi6X7-23" style="edgeStyle=orthogonalEdgeStyle;rounded=0;orthogonalLoop=1;jettySize=auto;html=1;" edge="1" parent="1" source="G7dS1ypWpmba1u2Bi6X7-24">
          <mxGeometry relative="1" as="geometry">
            <mxPoint x="168.66000000000003" y="380" as="targetPoint" />
          </mxGeometry>
        </mxCell>
        <mxCell id="G7dS1ypWpmba1u2Bi6X7-24" value="consume" style="ellipse;whiteSpace=wrap;html=1;" vertex="1" parent="1">
          <mxGeometry x="138.66000000000003" y="290" width="60" height="40" as="geometry" />
        </mxCell>
        <mxCell id="G7dS1ypWpmba1u2Bi6X7-25" style="edgeStyle=orthogonalEdgeStyle;rounded=0;orthogonalLoop=1;jettySize=auto;html=1;entryX=0.5;entryY=0;entryDx=0;entryDy=0;" edge="1" parent="1" source="G7dS1ypWpmba1u2Bi6X7-26" target="G7dS1ypWpmba1u2Bi6X7-36">
          <mxGeometry relative="1" as="geometry">
            <mxPoint x="168.66000000000003" y="430" as="targetPoint" />
          </mxGeometry>
        </mxCell>
        <mxCell id="G7dS1ypWpmba1u2Bi6X7-26" value="getMana" style="shape=parallelogram;perimeter=parallelogramPerimeter;whiteSpace=wrap;html=1;fixedSize=1;" vertex="1" parent="1">
          <mxGeometry x="131.16000000000003" y="350" width="80" height="30" as="geometry" />
        </mxCell>
        <mxCell id="G7dS1ypWpmba1u2Bi6X7-27" style="edgeStyle=orthogonalEdgeStyle;rounded=0;orthogonalLoop=1;jettySize=auto;html=1;entryX=0.5;entryY=0;entryDx=0;entryDy=0;" edge="1" parent="1" source="G7dS1ypWpmba1u2Bi6X7-28" target="G7dS1ypWpmba1u2Bi6X7-30">
          <mxGeometry relative="1" as="geometry" />
        </mxCell>
        <mxCell id="G7dS1ypWpmba1u2Bi6X7-28" value="mana+amountToAddPerSecond" style="rounded=0;whiteSpace=wrap;html=1;align=left;" vertex="1" parent="1">
          <mxGeometry x="81.12" y="490" width="180.09" height="40" as="geometry" />
        </mxCell>
        <mxCell id="G7dS1ypWpmba1u2Bi6X7-29" style="edgeStyle=orthogonalEdgeStyle;rounded=0;orthogonalLoop=1;jettySize=auto;html=1;entryX=0;entryY=0.5;entryDx=0;entryDy=0;exitX=0;exitY=0.5;exitDx=0;exitDy=0;" edge="1" parent="1" source="G7dS1ypWpmba1u2Bi6X7-30" target="G7dS1ypWpmba1u2Bi6X7-36">
          <mxGeometry relative="1" as="geometry" />
        </mxCell>
        <mxCell id="G7dS1ypWpmba1u2Bi6X7-30" value="result=mana+amountToAddPerSecond" style="shape=document;whiteSpace=wrap;html=1;boundedLbl=1;align=left;" vertex="1" parent="1">
          <mxGeometry x="66.74" y="545" width="208.84" height="40" as="geometry" />
        </mxCell>
        <mxCell id="G7dS1ypWpmba1u2Bi6X7-31" value="end" style="ellipse;whiteSpace=wrap;html=1;" vertex="1" parent="1">
          <mxGeometry x="128.66000000000003" y="600" width="85" height="40" as="geometry" />
        </mxCell>
        <mxCell id="G7dS1ypWpmba1u2Bi6X7-32" style="edgeStyle=orthogonalEdgeStyle;rounded=0;orthogonalLoop=1;jettySize=auto;html=1;entryX=1;entryY=0.5;entryDx=0;entryDy=0;exitX=1;exitY=0.5;exitDx=0;exitDy=0;" edge="1" parent="1" source="G7dS1ypWpmba1u2Bi6X7-36" target="G7dS1ypWpmba1u2Bi6X7-31">
          <mxGeometry relative="1" as="geometry">
            <Array as="points">
              <mxPoint x="288.66" y="425" />
              <mxPoint x="288.66" y="620" />
            </Array>
          </mxGeometry>
        </mxCell>
        <mxCell id="G7dS1ypWpmba1u2Bi6X7-33" value="true" style="edgeLabel;html=1;align=center;verticalAlign=middle;resizable=0;points=[];" connectable="0" vertex="1" parent="G7dS1ypWpmba1u2Bi6X7-32">
          <mxGeometry x="0.0475" relative="1" as="geometry">
            <mxPoint as="offset" />
          </mxGeometry>
        </mxCell>
        <mxCell id="G7dS1ypWpmba1u2Bi6X7-34" style="edgeStyle=orthogonalEdgeStyle;rounded=0;orthogonalLoop=1;jettySize=auto;html=1;exitX=0.5;exitY=1;exitDx=0;exitDy=0;" edge="1" parent="1" source="G7dS1ypWpmba1u2Bi6X7-36" target="G7dS1ypWpmba1u2Bi6X7-28">
          <mxGeometry relative="1" as="geometry" />
        </mxCell>
        <mxCell id="G7dS1ypWpmba1u2Bi6X7-35" value="false" style="edgeLabel;html=1;align=center;verticalAlign=middle;resizable=0;points=[];" connectable="0" vertex="1" parent="G7dS1ypWpmba1u2Bi6X7-34">
          <mxGeometry x="0.0407" y="-1" relative="1" as="geometry">
            <mxPoint as="offset" />
          </mxGeometry>
        </mxCell>
        <mxCell id="G7dS1ypWpmba1u2Bi6X7-36" value="duration=0" style="rhombus;whiteSpace=wrap;html=1;" vertex="1" parent="1">
          <mxGeometry x="131.16000000000003" y="400" width="80" height="50" as="geometry" />
        </mxCell>
        <mxCell id="G7dS1ypWpmba1u2Bi6X7-38" style="edgeStyle=orthogonalEdgeStyle;rounded=0;orthogonalLoop=1;jettySize=auto;html=1;" edge="1" parent="1" source="G7dS1ypWpmba1u2Bi6X7-37" target="G7dS1ypWpmba1u2Bi6X7-39">
          <mxGeometry relative="1" as="geometry">
            <mxPoint x="580" y="460" as="targetPoint" />
          </mxGeometry>
        </mxCell>
        <mxCell id="G7dS1ypWpmba1u2Bi6X7-37" value="passive" style="ellipse;whiteSpace=wrap;html=1;" vertex="1" parent="1">
          <mxGeometry x="540" y="380" width="80" height="45" as="geometry" />
        </mxCell>
        <mxCell id="G7dS1ypWpmba1u2Bi6X7-41" style="edgeStyle=orthogonalEdgeStyle;rounded=0;orthogonalLoop=1;jettySize=auto;html=1;entryX=0.5;entryY=0;entryDx=0;entryDy=0;" edge="1" parent="1" source="G7dS1ypWpmba1u2Bi6X7-39" target="G7dS1ypWpmba1u2Bi6X7-40">
          <mxGeometry relative="1" as="geometry" />
        </mxCell>
        <mxCell id="G7dS1ypWpmba1u2Bi6X7-39" value="burnEnemies" style="shape=parallelogram;perimeter=parallelogramPerimeter;whiteSpace=wrap;html=1;fixedSize=1;" vertex="1" parent="1">
          <mxGeometry x="530" y="450" width="100" height="30" as="geometry" />
        </mxCell>
        <mxCell id="G7dS1ypWpmba1u2Bi6X7-42" style="edgeStyle=orthogonalEdgeStyle;rounded=0;orthogonalLoop=1;jettySize=auto;html=1;exitX=1;exitY=0.5;exitDx=0;exitDy=0;entryX=1;entryY=0.5;entryDx=0;entryDy=0;" edge="1" parent="1" source="G7dS1ypWpmba1u2Bi6X7-40" target="G7dS1ypWpmba1u2Bi6X7-54">
          <mxGeometry relative="1" as="geometry">
            <mxPoint x="660" y="630" as="targetPoint" />
          </mxGeometry>
        </mxCell>
        <mxCell id="G7dS1ypWpmba1u2Bi6X7-43" value="false" style="edgeLabel;html=1;align=center;verticalAlign=middle;resizable=0;points=[];" connectable="0" vertex="1" parent="G7dS1ypWpmba1u2Bi6X7-42">
          <mxGeometry x="-0.1183" y="1" relative="1" as="geometry">
            <mxPoint as="offset" />
          </mxGeometry>
        </mxCell>
        <mxCell id="G7dS1ypWpmba1u2Bi6X7-44" style="edgeStyle=orthogonalEdgeStyle;rounded=0;orthogonalLoop=1;jettySize=auto;html=1;exitX=0;exitY=0.5;exitDx=0;exitDy=0;entryX=0.5;entryY=0;entryDx=0;entryDy=0;" edge="1" parent="1" source="G7dS1ypWpmba1u2Bi6X7-40" target="G7dS1ypWpmba1u2Bi6X7-49">
          <mxGeometry relative="1" as="geometry">
            <mxPoint x="409.98" y="530" as="targetPoint" />
            <mxPoint x="517.5" y="435" as="sourcePoint" />
            <Array as="points">
              <mxPoint x="423" y="545" />
            </Array>
          </mxGeometry>
        </mxCell>
        <mxCell id="G7dS1ypWpmba1u2Bi6X7-45" value="true" style="edgeLabel;html=1;align=center;verticalAlign=middle;resizable=0;points=[];" connectable="0" vertex="1" parent="G7dS1ypWpmba1u2Bi6X7-44">
          <mxGeometry x="0.1714" y="1" relative="1" as="geometry">
            <mxPoint as="offset" />
          </mxGeometry>
        </mxCell>
        <mxCell id="G7dS1ypWpmba1u2Bi6X7-40" value="damageEnemies" style="rhombus;whiteSpace=wrap;html=1;" vertex="1" parent="1">
          <mxGeometry x="530" y="505" width="100" height="80" as="geometry" />
        </mxCell>
        <mxCell id="G7dS1ypWpmba1u2Bi6X7-47" style="edgeStyle=orthogonalEdgeStyle;rounded=0;orthogonalLoop=1;jettySize=auto;html=1;exitX=0.5;exitY=1;exitDx=0;exitDy=0;" edge="1" parent="1" source="G7dS1ypWpmba1u2Bi6X7-46" target="G7dS1ypWpmba1u2Bi6X7-48">
          <mxGeometry relative="1" as="geometry">
            <mxPoint x="475.28571428571445" y="730" as="targetPoint" />
          </mxGeometry>
        </mxCell>
        <mxCell id="G7dS1ypWpmba1u2Bi6X7-46" value="damage+perSecond" style="rounded=0;whiteSpace=wrap;html=1;" vertex="1" parent="1">
          <mxGeometry x="367.48" y="670" width="110" height="40" as="geometry" />
        </mxCell>
        <mxCell id="G7dS1ypWpmba1u2Bi6X7-55" style="edgeStyle=orthogonalEdgeStyle;rounded=0;orthogonalLoop=1;jettySize=auto;html=1;entryX=0;entryY=0.5;entryDx=0;entryDy=0;exitX=0;exitY=0.5;exitDx=0;exitDy=0;" edge="1" parent="1" source="G7dS1ypWpmba1u2Bi6X7-48" target="G7dS1ypWpmba1u2Bi6X7-49">
          <mxGeometry relative="1" as="geometry" />
        </mxCell>
        <mxCell id="G7dS1ypWpmba1u2Bi6X7-48" value="result=damage+perSecond" style="shape=document;whiteSpace=wrap;html=1;boundedLbl=1;" vertex="1" parent="1">
          <mxGeometry x="346.23" y="730" width="152.5" height="60" as="geometry" />
        </mxCell>
        <mxCell id="G7dS1ypWpmba1u2Bi6X7-50" style="edgeStyle=orthogonalEdgeStyle;rounded=0;orthogonalLoop=1;jettySize=auto;html=1;exitX=0.5;exitY=1;exitDx=0;exitDy=0;entryX=0.5;entryY=0;entryDx=0;entryDy=0;" edge="1" parent="1" source="G7dS1ypWpmba1u2Bi6X7-49" target="G7dS1ypWpmba1u2Bi6X7-46">
          <mxGeometry relative="1" as="geometry" />
        </mxCell>
        <mxCell id="G7dS1ypWpmba1u2Bi6X7-51" value="false" style="edgeLabel;html=1;align=center;verticalAlign=middle;resizable=0;points=[];" connectable="0" vertex="1" parent="G7dS1ypWpmba1u2Bi6X7-50">
          <mxGeometry x="-0.2095" y="-1" relative="1" as="geometry">
            <mxPoint as="offset" />
          </mxGeometry>
        </mxCell>
        <mxCell id="G7dS1ypWpmba1u2Bi6X7-52" style="edgeStyle=orthogonalEdgeStyle;rounded=0;orthogonalLoop=1;jettySize=auto;html=1;entryX=0;entryY=0.5;entryDx=0;entryDy=0;" edge="1" parent="1" source="G7dS1ypWpmba1u2Bi6X7-49" target="G7dS1ypWpmba1u2Bi6X7-54">
          <mxGeometry relative="1" as="geometry">
            <mxPoint x="590" y="650" as="targetPoint" />
          </mxGeometry>
        </mxCell>
        <mxCell id="G7dS1ypWpmba1u2Bi6X7-53" value="true" style="edgeLabel;html=1;align=center;verticalAlign=middle;resizable=0;points=[];" connectable="0" vertex="1" parent="G7dS1ypWpmba1u2Bi6X7-52">
          <mxGeometry x="0.1642" y="-2" relative="1" as="geometry">
            <mxPoint as="offset" />
          </mxGeometry>
        </mxCell>
        <mxCell id="G7dS1ypWpmba1u2Bi6X7-49" value="duration=0" style="rhombus;whiteSpace=wrap;html=1;" vertex="1" parent="1">
          <mxGeometry x="372.48" y="560" width="100" height="80" as="geometry" />
        </mxCell>
        <mxCell id="G7dS1ypWpmba1u2Bi6X7-54" value="end" style="ellipse;whiteSpace=wrap;html=1;" vertex="1" parent="1">
          <mxGeometry x="520" y="590" width="120" height="80" as="geometry" />
        </mxCell>
      </root>
    </mxGraphModel>
  </diagram>
</mxfile>
